<svg width="28" height="29" viewBox="0 0 28 29" fill="none" xmlns="http://www.w3.org/2000/svg">
<path d="M23.7091 9.98669C21.5382 9.98669 20.6507 8.45146 21.7301 6.5684C22.3538 5.47694 21.982 4.08564 20.8906 3.46195L18.8156 2.27454C17.8681 1.71083 16.6447 2.04666 16.081 2.99418L15.949 3.22207C14.8696 5.10513 13.0945 5.10513 12.003 3.22207L11.8711 2.99418C11.7418 2.76748 11.5687 2.56874 11.3619 2.40955C11.155 2.25037 10.9186 2.1339 10.6664 2.06693C10.4141 1.99996 10.1511 1.98383 9.89255 2.01947C9.63401 2.05511 9.38514 2.14182 9.16042 2.27454L7.08546 3.46195C5.994 4.08564 5.62219 5.48894 6.24588 6.58039C7.33733 8.45146 6.44978 9.98669 4.27886 9.98669C3.03148 9.98669 2 11.0062 2 12.2655V14.3765C2 15.6239 3.01949 16.6554 4.27886 16.6554C6.44978 16.6554 7.33733 18.1906 6.24588 20.0736C5.62219 21.1651 5.994 22.5564 7.08546 23.1801L9.16042 24.3675C10.1079 24.9312 11.3313 24.5954 11.8951 23.6479L12.027 23.42C13.1064 21.5369 14.8816 21.5369 15.973 23.42L16.1049 23.6479C16.6687 24.5954 17.8921 24.9312 18.8396 24.3675L20.9145 23.1801C22.006 22.5564 22.3778 21.1531 21.7541 20.0736C20.6627 18.1906 21.5502 16.6554 23.7211 16.6554C24.9685 16.6554 26 15.6359 26 14.3765V12.2655C25.9937 11.661 25.75 11.0832 25.3214 10.6569C24.8928 10.2305 24.3137 9.9898 23.7091 9.98669ZM13.994 17.2191C11.8471 17.2191 10.096 15.4679 10.096 13.321C10.096 11.1741 11.8471 9.42297 13.994 9.42297C16.1409 9.42297 17.8921 11.1741 17.8921 13.321C17.8921 15.4679 16.1409 17.2191 13.994 17.2191Z" fill="white"/>
</svg>
