<svg width="25" height="24" viewBox="0 0 25 24" fill="none" xmlns="http://www.w3.org/2000/svg">
<path d="M11.1324 3.34224C12.0063 2.46833 13.4232 2.46833 14.2971 3.34224L21.2419 10.2871C22.1158 11.161 22.1158 12.5779 21.2419 13.4518C20.6593 14.0344 19.7147 14.0344 19.1321 13.4518L11.1324 5.45207C10.5498 4.86946 10.5498 3.92486 11.1324 3.34224Z" fill="#A5ACBC"/>
<path d="M11.1324 3.34224C12.0063 2.46833 13.4232 2.46833 14.2971 3.34224L21.2419 10.2871C22.1158 11.161 22.1158 12.5779 21.2419 13.4518C20.6593 14.0344 19.7147 14.0344 19.1321 13.4518L11.1324 5.45207C10.5498 4.86946 10.5498 3.92486 11.1324 3.34224Z" fill="#E3931A"/>
<path d="M16.6256 1.3655C18.4462 -0.455166 21.3981 -0.455167 23.2187 1.3655C25.0394 3.18616 25.0394 6.13804 23.2187 7.95871L21.6143 9.56313C20.4901 10.6874 18.6673 10.6874 17.543 9.56314L15.0211 7.04125C13.8969 5.91699 13.8969 4.09419 15.0211 2.96993L16.6256 1.3655Z" fill="#A5ACBC"/>
<path d="M16.6256 1.3655C18.4462 -0.455166 21.3981 -0.455167 23.2187 1.3655C25.0394 3.18616 25.0394 6.13804 23.2187 7.95871L21.6143 9.56313C20.4901 10.6874 18.6673 10.6874 17.543 9.56314L15.0211 7.04125C13.8969 5.91699 13.8969 4.09419 15.0211 2.96993L16.6256 1.3655Z" fill="#E3931A"/>
<path d="M11.396 6.59499L17.9891 13.1882L9.85755 21.3198C8.0369 23.1405 5.08504 23.1405 3.26438 21.3198C1.44373 19.4991 1.44373 16.5473 3.26438 14.7266L11.396 6.59499Z" fill="#A5ACBC"/>
<path d="M11.396 6.59499L17.9891 13.1882L9.85755 21.3198C8.0369 23.1405 5.08504 23.1405 3.26438 21.3198C1.44373 19.4991 1.44373 16.5473 3.26438 14.7266L11.396 6.59499Z" fill="#E3931A"/>
<path d="M1.79323 23.9663C1.07969 24.1575 0.426753 23.5045 0.617945 22.791L2.12619 17.1621C2.31738 16.4486 3.20931 16.2096 3.73166 16.7319L7.85226 20.8526C8.3746 21.3749 8.13561 22.2668 7.42207 22.458L1.79323 23.9663Z" fill="#A5ACBC"/>
<path d="M1.79323 23.9663C1.07969 24.1575 0.426753 23.5045 0.617945 22.791L2.12619 17.1621C2.31738 16.4486 3.20931 16.2096 3.73166 16.7319L7.85226 20.8526C8.3746 21.3749 8.13561 22.2668 7.42207 22.458L1.79323 23.9663Z" fill="#E3931A"/>
</svg>
