<svg width="25" height="24" viewBox="0 0 25 24" fill="none" xmlns="http://www.w3.org/2000/svg">
<path d="M11.1322 3.34224C12.0061 2.46833 13.423 2.46833 14.2969 3.34224L21.2417 10.2871C22.1156 11.161 22.1156 12.5779 21.2417 13.4518C20.6591 14.0344 19.7145 14.0344 19.1319 13.4518L11.1322 5.45207C10.5495 4.86946 10.5495 3.92486 11.1322 3.34224Z" fill="#CEDBFF"/>
<path d="M16.6253 1.3655C18.446 -0.455166 21.3978 -0.455167 23.2185 1.3655C25.0392 3.18616 25.0391 6.13804 23.2185 7.95871L21.6141 9.56313C20.4898 10.6874 18.667 10.6874 17.5428 9.56314L15.0209 7.04125C13.8966 5.91699 13.8966 4.09419 15.0209 2.96993L16.6253 1.3655Z" fill="#CEDBFF"/>
<path d="M11.3957 6.59499L17.9889 13.1882L9.85731 21.3198C8.03666 23.1405 5.08479 23.1405 3.26414 21.3198C1.44348 19.4991 1.44349 16.5473 3.26414 14.7266L11.3957 6.59499Z" fill="#CEDBFF"/>
<path d="M1.79299 23.9663C1.07944 24.1575 0.426509 23.5045 0.617701 22.791L2.12595 17.1621C2.31714 16.4486 3.20906 16.2096 3.73141 16.7319L7.85201 20.8526C8.37436 21.3749 8.13537 22.2668 7.42183 22.458L1.79299 23.9663Z" fill="#CEDBFF"/>
</svg>
