<svg width="25" height="24" viewBox="0 0 25 24" fill="none" xmlns="http://www.w3.org/2000/svg">
<path d="M10.7989 3.34224C11.6728 2.46833 13.0897 2.46833 13.9636 3.34224L20.9084 10.2871C21.7823 11.161 21.7823 12.5779 20.9084 13.4518C20.3258 14.0344 19.3812 14.0344 18.7986 13.4518L10.7989 5.45207C10.2163 4.86946 10.2163 3.92486 10.7989 3.34224Z" fill="#A5ACBC"/>
<path d="M16.2921 1.3655C18.1127 -0.455166 21.0646 -0.455167 22.8852 1.3655C24.7059 3.18616 24.7059 6.13804 22.8852 7.95871L21.2808 9.56313C20.1566 10.6874 18.3338 10.6874 17.2095 9.56314L14.6877 7.04125C13.5634 5.91699 13.5634 4.09419 14.6877 2.96993L16.2921 1.3655Z" fill="#A5ACBC"/>
<path d="M11.0625 6.59499L17.6556 13.1882L9.52406 21.3198C7.7034 23.1405 4.75154 23.1405 2.93089 21.3198C1.11023 19.4991 1.11023 16.5473 2.93089 14.7266L11.0625 6.59499Z" fill="#A5ACBC"/>
<path d="M1.45973 23.9663C0.746193 24.1575 0.0932566 23.5045 0.284449 22.791L1.79269 17.1621C1.98389 16.4486 2.87581 16.2096 3.39816 16.7319L7.51876 20.8526C8.04111 21.3749 7.80212 22.2668 7.08858 22.458L1.45973 23.9663Z" fill="#A5ACBC"/>
</svg>
