<?xml version="1.0" encoding="UTF-8" standalone="no"?>
<!DOCTYPE svg PUBLIC "-//W3C//DTD SVG 1.1//EN" "http://www.w3.org/Graphics/SVG/1.1/DTD/svg11.dtd">
<svg width="100%" height="100%" viewBox="0 0 520 491" version="1.1" xmlns="http://www.w3.org/2000/svg" xmlns:xlink="http://www.w3.org/1999/xlink" xml:space="preserve" xmlns:serif="http://www.serif.com/" style="fill-rule:evenodd;clip-rule:evenodd;stroke-linejoin:round;stroke-miterlimit:2;">
    <g transform="matrix(1,0,0,1,-90.2942,-34.7429)">
        <path d="M110.55,262.8L116.456,262.8C124.194,297.952 141.956,330.277 168.425,356.362C234.839,421.745 338.995,430.159 414.755,376.878L432.919,394.847C428.974,399.05 426.755,404.453 426.747,410.234C426.747,416.347 429.165,422.097 433.556,426.425L518.259,509.804C539.193,530.327 573.181,530.417 594.044,509.968C614.681,489.636 615.251,456.101 593.868,435.034L509.173,351.667C500.404,343.026 486.318,342.862 477.333,351.081L459.271,333.265C475.087,311.495 485.904,286.804 491.072,260.554L491.072,264.265L496.072,264.265C507.248,264.265 516.338,255.187 516.338,244.031C516.338,232.875 507.248,223.801 496.072,223.801L494.584,223.801C494.439,173.465 474.404,126.113 438.119,90.421C317.549,-28.399 112.029,55.722 112.029,222.331L112.029,222.335L110.552,222.335C99.384,222.335 90.294,231.409 90.294,242.565C90.294,253.721 99.384,262.795 110.552,262.795L110.55,262.8ZM494.2,235.976L496.071,235.976C500.532,235.976 504.165,239.589 504.165,244.031C504.165,248.476 500.536,252.089 496.071,252.089L492.548,252.089C493.345,246.773 493.868,241.394 494.2,235.976L494.2,235.976ZM485.227,360.276C489.45,356.104 496.372,356.135 500.625,360.339L585.32,443.706C601.687,459.823 601.476,485.554 585.504,501.284C569.367,517.12 543.024,517.034 526.789,501.116L442.098,417.749C440.055,415.733 438.918,413.061 438.918,410.233C438.918,407.436 440.028,404.807 442.031,402.831C447.727,397.217 486.074,359.44 485.226,360.276L485.227,360.276ZM468.575,359.538L445.216,382.6L441.529,386.233L424.732,369.62C429.568,365.737 434.271,361.541 438.783,357.1C438.81,357.072 438.837,357.053 438.865,357.025C443.435,352.525 447.74,347.83 451.783,342.966L468.575,359.538ZM302.265,47.148C348.312,47.148 394.449,64.476 429.575,99.093L429.575,99.097C463.649,132.605 482.415,177.077 482.423,224.327C482.474,379.967 289.423,458.407 176.963,347.687C142.94,314.152 124.193,269.632 124.193,222.337C124.193,124.849 203.99,47.147 302.263,47.147L302.265,47.148ZM110.555,234.518L112.466,234.518C112.813,239.932 113.348,245.311 114.153,250.631L110.555,250.631C106.102,250.631 102.469,247.017 102.469,242.576C102.473,238.131 106.102,234.517 110.555,234.517L110.555,234.518Z" style="fill-rule:nonzero;"/>
    </g>
    <g transform="matrix(1,0,0,1,-90.2942,-34.7429)">
        <path d="M409.41,327.89L410.101,327.273C410.18,327.199 410.262,327.124 410.332,327.046C438.039,299.401 453.219,262.753 453.074,223.846C452.922,184.549 437.246,147.541 408.929,119.636C314.917,26.968 153.069,92.163 153.539,222.856C153.683,262.122 169.328,299.129 197.613,327.066C256.187,384.726 351.283,385.168 409.403,327.879L409.41,327.89ZM165.72,222.82C165.454,148.574 226.427,88.28 302.35,88.28C375.143,88.28 437.21,144.362 440.6,218.22L422.76,206.486C417.955,203.318 412.006,202.345 406.401,203.818C400.823,205.299 396.128,209.095 393.53,214.232L384.511,232.009L366.71,196.564C363.253,189.677 356.312,185.4 348.585,185.4C340.874,185.404 333.929,189.693 330.476,196.588L327.077,203.377L305.694,129.764C303.112,120.885 294.647,114.791 285.467,115.186C276.162,115.53 268.322,122.131 266.405,131.237L246.089,227.604L237.195,196.745C234.874,188.702 227.699,182.843 219.34,182.175C211.012,181.48 202.981,186.144 199.391,193.714L178.981,236.964L166.086,229.726C165.961,227.425 165.73,225.144 165.722,222.823L165.72,222.82ZM167.716,244.597L178.716,250.773C180.197,251.605 181.935,251.781 183.552,251.265C185.161,250.753 186.486,249.593 187.204,248.066L210.395,198.914C211.829,195.89 215.102,194.058 218.368,194.304C221.704,194.574 224.567,196.91 225.493,200.113L241.153,254.445C241.93,257.129 244.497,258.933 247.223,258.843C250.012,258.742 252.384,256.75 252.954,254.015L278.302,133.735C279.071,130.11 282.2,127.477 285.88,127.341C289.802,127.11 292.966,129.606 293.997,133.149L319.724,221.688C320.423,224.095 322.521,225.825 325.017,226.052C327.49,226.282 329.884,224.95 331.009,222.712L341.361,202.028C344.119,196.528 353.076,196.524 355.834,202.016L379.049,248.239C380.081,250.294 382.178,251.591 384.471,251.595L384.487,251.595C386.776,251.595 388.877,250.306 389.917,248.263L404.39,219.728C405.429,217.681 407.3,216.169 409.526,215.579C411.745,214.989 414.14,215.372 416.065,216.642L440.503,232.716C440.128,238.747 439.468,244.724 438.296,250.575L420.417,238.817C418.968,237.86 417.183,237.563 415.511,238.02C413.831,238.465 412.429,239.602 411.644,241.145L391.64,280.59C390.253,283.328 387.613,285.012 384.593,285.012C384.531,285.012 384.468,285.008 384.409,285.008C381.335,285 378.57,283.293 377.191,280.555L354.062,234.5C353.03,232.441 350.925,231.144 348.624,231.144C346.319,231.144 344.21,232.449 343.179,234.504L329.284,262.262C327.796,265.246 324.671,267.039 321.319,266.687C317.983,266.387 315.217,264.113 314.28,260.906L294.268,192.023C293.491,189.344 291.35,187.422 288.19,187.64C285.401,187.746 283.038,189.738 282.467,192.469L257.065,312.999C256.296,316.627 253.167,319.26 249.526,319.389C249.331,319.393 249.28,319.393 249.143,319.397C245.553,319.397 242.358,316.999 241.378,313.561L220.358,240.655C219.651,238.221 217.522,236.479 214.99,236.276C214.83,236.264 214.666,236.257 214.506,236.257C212.166,236.257 210.014,237.604 208.998,239.745L195.35,268.679C194.393,270.698 192.624,272.249 190.483,272.933C188.381,273.605 186.014,273.382 184.053,272.277L173.209,266.187C170.787,259.171 168.952,251.964 167.717,244.597L167.716,244.597ZM194.196,284.527C199.532,282.824 203.962,278.945 206.36,273.879L213.13,259.535L229.681,316.93C232.153,325.555 240.158,331.578 249.146,331.578C249.216,331.578 249.81,331.57 249.884,331.566C259.204,331.226 267.052,324.629 268.97,315.515L289.365,218.785L302.592,264.324C304.94,272.371 311.865,278.066 320.154,278.816C328.404,279.644 336.427,275.195 340.174,267.722L348.631,250.82L366.315,286.031C369.764,292.898 376.69,297.179 384.26,297.195C391.947,297.324 399.01,293.008 402.498,286.101L419.42,252.738L431.881,260.93C432.955,261.637 434.158,262.055 435.33,262.543C429.084,283.352 417.721,302.457 401.846,318.332L401.084,319.027C347.545,371.789 260.104,371.5 206.184,318.414C195.825,308.18 187.403,296.582 180.903,284.102C185.146,285.696 189.825,285.922 194.2,284.528L194.196,284.527Z" style="fill-rule:nonzero;"/>
    </g>
</svg>
