<svg width="24" height="20" viewBox="0 0 24 20" fill="none" xmlns="http://www.w3.org/2000/svg">
<path d="M3.70588 19.7C2.66667 19.7 1.78902 19.396 1.07294 18.788C0.357647 18.1793 0 17.4333 0 16.55V3.15C0 2.26667 0.357647 1.52067 1.07294 0.912C1.78902 0.304 2.66667 0 3.70588 0H12.2353V3.15H3.70588V16.55H12.2353V19.7H3.70588ZM16.7353 16.05L14.1471 13.825L16.9706 11.425H7.94118V8.275H16.9706L14.1471 5.875L16.7353 3.65L24 9.85L16.7353 16.05Z" fill="#75809A"/>
<path d="M3.70588 19.7C2.66667 19.7 1.78902 19.396 1.07294 18.788C0.357647 18.1793 0 17.4333 0 16.55V3.15C0 2.26667 0.357647 1.52067 1.07294 0.912C1.78902 0.304 2.66667 0 3.70588 0H12.2353V3.15H3.70588V16.55H12.2353V19.7H3.70588ZM16.7353 16.05L14.1471 13.825L16.9706 11.425H7.94118V8.275H16.9706L14.1471 5.875L16.7353 3.65L24 9.85L16.7353 16.05Z" fill="#122660"/>
</svg>
