<svg width="29" height="28" viewBox="0 0 29 28" fill="none" xmlns="http://www.w3.org/2000/svg">
<path d="M25.9293 8.25039C24.5802 8.25039 23.4674 9.25646 23.2974 10.5566L19.1491 11.7471C18.3016 9.93967 16.4653 8.68856 14.3378 8.68856C13.2481 8.68856 12.2334 9.01719 11.3917 9.57933L8.35615 6.65335C8.77703 5.98456 9.02206 5.19181 9.02206 4.34428C9.02206 1.94585 7.07621 0 4.67778 0C2.27934 0 0.333496 1.94585 0.333496 4.34428C0.333496 6.74272 2.27934 8.68856 4.67778 8.68856C5.50224 8.68856 6.27481 8.45794 6.93208 8.05724L9.96183 10.9832C9.37087 11.8394 9.02206 12.8801 9.02206 14.0014C9.02206 15.6273 9.75139 17.0802 10.8987 18.0546L9.21809 21.0843C8.97305 21.0296 8.71937 21.0007 8.45704 21.0007C6.52273 21.0007 4.9574 22.5689 4.9574 24.5004C4.9574 26.4347 6.52561 28 8.45704 28C10.3914 28 11.9567 26.4318 11.9567 24.5004C11.9567 23.5491 11.579 22.69 10.965 22.0587L12.6399 19.0376C13.1703 19.2163 13.7411 19.3143 14.3321 19.3143C17.2667 19.3143 19.6478 16.9361 19.6478 14.0014C19.6478 13.8977 19.6449 13.791 19.6392 13.6872L23.799 12.4967C24.2833 13.1453 25.0558 13.5661 25.9293 13.5661C27.3966 13.5661 28.5843 12.3756 28.5843 10.9111C28.5843 9.44096 27.3937 8.25039 25.9293 8.25039Z" fill="#CEDBFF"/>
</svg>
