<svg width="29" height="28" viewBox="0 0 29 28" fill="none" xmlns="http://www.w3.org/2000/svg">
<path d="M25.5958 8.25039C24.2467 8.25039 23.1339 9.25646 22.9639 10.5566L18.8156 11.7471C17.9681 9.93967 16.1318 8.68856 14.0043 8.68856C12.9147 8.68856 11.8999 9.01719 11.0582 9.57933L8.02265 6.65335C8.44353 5.98456 8.68856 5.19181 8.68856 4.34428C8.68856 1.94585 6.74272 0 4.34428 0C1.94585 0 0 1.94585 0 4.34428C0 6.74272 1.94585 8.68856 4.34428 8.68856C5.16874 8.68856 5.94132 8.45794 6.59858 8.05724L9.62833 10.9832C9.03737 11.8394 8.68856 12.8801 8.68856 14.0014C8.68856 15.6273 9.41789 17.0802 10.5652 18.0546L8.88459 21.0843C8.63956 21.0296 8.38587 21.0007 8.12355 21.0007C6.18923 21.0007 4.62391 22.5689 4.62391 24.5004C4.62391 26.4347 6.19211 28 8.12355 28C10.0579 28 11.6232 26.4318 11.6232 24.5004C11.6232 23.5491 11.2455 22.69 10.6315 22.0587L12.3064 19.0376C12.8368 19.2163 13.4076 19.3143 13.9986 19.3143C16.9332 19.3143 19.3143 16.9361 19.3143 14.0014C19.3143 13.8977 19.3114 13.791 19.3057 13.6872L23.4655 12.4967C23.9498 13.1453 24.7223 13.5661 25.5958 13.5661C27.0631 13.5661 28.2508 12.3756 28.2508 10.9111C28.2508 9.44096 27.0602 8.25039 25.5958 8.25039Z" fill="#A5ACBC"/>
</svg>
