<svg width="28" height="28" viewBox="0 0 28 28" fill="none" xmlns="http://www.w3.org/2000/svg">
<path d="M8.16659 9.33333H4.66659C3.38325 9.33333 2.33325 8.28333 2.33325 7V4.66666C2.33325 3.38333 3.38325 2.33333 4.66659 2.33333H8.16659C9.44992 2.33333 10.4999 3.38333 10.4999 4.66666V7C10.4999 8.28333 9.44992 9.33333 8.16659 9.33333ZM24.2666 8.16666H20.0666C19.2966 8.16666 18.6666 7.53666 18.6666 6.76666V4.89999C18.6666 4.12999 19.2966 3.49999 20.0666 3.49999H24.2666C25.0366 3.49999 25.6666 4.12999 25.6666 4.89999V6.76666C25.6666 7.53666 25.0366 8.16666 24.2666 8.16666ZM24.2666 16.9167H20.0666C19.2966 16.9167 18.6666 16.2867 18.6666 15.5167V13.65C18.6666 12.88 19.2966 12.25 20.0666 12.25H24.2666C25.0366 12.25 25.6666 12.88 25.6666 13.65V15.5167C25.6666 16.2867 25.0366 16.9167 24.2666 16.9167Z" fill="#A5ACBC"/>
<path d="M18.6667 15.4583C19.145 15.4583 19.5417 15.0617 19.5417 14.5833C19.5417 14.105 19.145 13.7083 18.6667 13.7083H15.4583V6.70833H18.6667C19.145 6.70833 19.5417 6.31166 19.5417 5.83333C19.5417 5.35499 19.145 4.95833 18.6667 4.95833H10.5C10.0217 4.95833 9.625 5.35499 9.625 5.83333C9.625 6.31166 10.0217 6.70833 10.5 6.70833H13.7083V21C13.7083 22.7733 15.1433 24.2083 16.9167 24.2083H18.6667C19.145 24.2083 19.5417 23.8117 19.5417 23.3333C19.5417 22.855 19.145 22.4583 18.6667 22.4583H16.9167C16.1117 22.4583 15.4583 21.805 15.4583 21V15.4583H18.6667Z" fill="#A5ACBC"/>
<path d="M24.2667 25.6667H20.0667C19.2967 25.6667 18.6667 25.0367 18.6667 24.2667V22.4C18.6667 21.63 19.2967 21 20.0667 21H24.2667C25.0367 21 25.6667 21.63 25.6667 22.4V24.2667C25.6667 25.0367 25.0367 25.6667 24.2667 25.6667Z" fill="#A5ACBC"/>
</svg>
