<svg width="28" height="28" viewBox="0 0 28 28" fill="none" xmlns="http://www.w3.org/2000/svg">
<path d="M8.16683 9.33337H4.66683C3.3835 9.33337 2.3335 8.28337 2.3335 7.00004V4.66671C2.3335 3.38337 3.3835 2.33337 4.66683 2.33337H8.16683C9.45016 2.33337 10.5002 3.38337 10.5002 4.66671V7.00004C10.5002 8.28337 9.45016 9.33337 8.16683 9.33337ZM24.2668 8.16671H20.0668C19.2968 8.16671 18.6668 7.53671 18.6668 6.76671V4.90004C18.6668 4.13004 19.2968 3.50004 20.0668 3.50004H24.2668C25.0368 3.50004 25.6668 4.13004 25.6668 4.90004V6.76671C25.6668 7.53671 25.0368 8.16671 24.2668 8.16671ZM24.2668 16.9167H20.0668C19.2968 16.9167 18.6668 16.2867 18.6668 15.5167V13.65C18.6668 12.88 19.2968 12.25 20.0668 12.25H24.2668C25.0368 12.25 25.6668 12.88 25.6668 13.65V15.5167C25.6668 16.2867 25.0368 16.9167 24.2668 16.9167Z" fill="#A5ACBC"/>
<path d="M18.6667 15.4584C19.145 15.4584 19.5417 15.0617 19.5417 14.5834C19.5417 14.105 19.145 13.7084 18.6667 13.7084H15.4583V6.70837H18.6667C19.145 6.70837 19.5417 6.31171 19.5417 5.83337C19.5417 5.35504 19.145 4.95837 18.6667 4.95837H10.5C10.0217 4.95837 9.625 5.35504 9.625 5.83337C9.625 6.31171 10.0217 6.70837 10.5 6.70837H13.7083V21C13.7083 22.7734 15.1433 24.2084 16.9167 24.2084H18.6667C19.145 24.2084 19.5417 23.8117 19.5417 23.3334C19.5417 22.855 19.145 22.4584 18.6667 22.4584H16.9167C16.1117 22.4584 15.4583 21.805 15.4583 21V15.4584H18.6667Z" fill="#A5ACBC"/>
<path d="M24.2665 25.6667H20.0665C19.2965 25.6667 18.6665 25.0367 18.6665 24.2667V22.4C18.6665 21.63 19.2965 21 20.0665 21H24.2665C25.0365 21 25.6665 21.63 25.6665 22.4V24.2667C25.6665 25.0367 25.0365 25.6667 24.2665 25.6667Z" fill="#A5ACBC"/>
</svg>
