<svg width="24" height="24" viewBox="0 0 24 24" fill="none" xmlns="http://www.w3.org/2000/svg">
<path d="M5.83333 7.33337H2.33333C1.05 7.33337 0 6.28337 0 5.00004V2.66671C0 1.38337 1.05 0.333374 2.33333 0.333374H5.83333C7.11667 0.333374 8.16667 1.38337 8.16667 2.66671V5.00004C8.16667 6.28337 7.11667 7.33337 5.83333 7.33337ZM21.9333 6.16671H17.7333C16.9633 6.16671 16.3333 5.53671 16.3333 4.76671V2.90004C16.3333 2.13004 16.9633 1.50004 17.7333 1.50004H21.9333C22.7033 1.50004 23.3333 2.13004 23.3333 2.90004V4.76671C23.3333 5.53671 22.7033 6.16671 21.9333 6.16671ZM21.9333 14.9167H17.7333C16.9633 14.9167 16.3333 14.2867 16.3333 13.5167V11.65C16.3333 10.88 16.9633 10.25 17.7333 10.25H21.9333C22.7033 10.25 23.3333 10.88 23.3333 11.65V13.5167C23.3333 14.2867 22.7033 14.9167 21.9333 14.9167Z" fill="#CEDBFF"/>
<path d="M16.3333 13.4584C16.8117 13.4584 17.2083 13.0617 17.2083 12.5834C17.2083 12.105 16.8117 11.7084 16.3333 11.7084H13.125V4.70837H16.3333C16.8117 4.70837 17.2083 4.31171 17.2083 3.83337C17.2083 3.35504 16.8117 2.95837 16.3333 2.95837H8.16667C7.68833 2.95837 7.29167 3.35504 7.29167 3.83337C7.29167 4.31171 7.68833 4.70837 8.16667 4.70837H11.375V19C11.375 20.7734 12.81 22.2084 14.5833 22.2084H16.3333C16.8117 22.2084 17.2083 21.8117 17.2083 21.3334C17.2083 20.855 16.8117 20.4584 16.3333 20.4584H14.5833C13.7783 20.4584 13.125 19.805 13.125 19V13.4584H16.3333Z" fill="#CEDBFF"/>
<path d="M21.9333 23.6667H17.7333C16.9633 23.6667 16.3333 23.0367 16.3333 22.2667V20.4C16.3333 19.63 16.9633 19 17.7333 19H21.9333C22.7033 19 23.3333 19.63 23.3333 20.4V22.2667C23.3333 23.0367 22.7033 23.6667 21.9333 23.6667Z" fill="#CEDBFF"/>
</svg>
