<svg width="38" height="28" viewBox="0 0 38 28" fill="none" xmlns="http://www.w3.org/2000/svg">
<path fill-rule="evenodd" clip-rule="evenodd" d="M6.36193 0C4.70507 0 3.36193 1.34315 3.36193 3V23.3333H34.473V3C34.473 1.34315 33.1299 0 31.473 0H6.36193ZM37.5843 24.5H0.250977C0.250977 26.433 1.81798 28 3.75097 28H34.0843C36.0173 28 37.5843 26.433 37.5843 24.5ZM17.5122 14.0867L15.1885 5.79175L11.8814 10.7863H10.6211C10.0688 10.7863 9.62109 11.2341 9.62109 11.7863C9.62109 12.3386 10.0688 12.7863 10.6211 12.7863H12.9558L14.4421 10.5416L16.9118 19.3577L20.5015 12.7863H28.5964C29.1487 12.7863 29.5964 12.3386 29.5964 11.7863C29.5964 11.2341 29.1487 10.7863 28.5964 10.7863H19.3151L17.5122 14.0867Z" fill="#A5ACBC"/>
<path fill-rule="evenodd" clip-rule="evenodd" d="M6.36193 0C4.70507 0 3.36193 1.34315 3.36193 3V23.3333H34.473V3C34.473 1.34315 33.1299 0 31.473 0H6.36193ZM37.5843 24.5H0.250977C0.250977 26.433 1.81798 28 3.75097 28H34.0843C36.0173 28 37.5843 26.433 37.5843 24.5ZM17.5122 14.0867L15.1885 5.79175L11.8814 10.7863H10.6211C10.0688 10.7863 9.62109 11.2341 9.62109 11.7863C9.62109 12.3386 10.0688 12.7863 10.6211 12.7863H12.9558L14.4421 10.5416L16.9118 19.3577L20.5015 12.7863H28.5964C29.1487 12.7863 29.5964 12.3386 29.5964 11.7863C29.5964 11.2341 29.1487 10.7863 28.5964 10.7863H19.3151L17.5122 14.0867Z" fill="#5B47D7"/>
</svg>
