<svg width="38" height="28" viewBox="0 0 38 28" fill="none" xmlns="http://www.w3.org/2000/svg">
<path fill-rule="evenodd" clip-rule="evenodd" d="M6.36168 0C4.70483 0 3.36168 1.34315 3.36168 3V23.3333H34.4728V3C34.4728 1.34315 33.1296 0 31.4728 0H6.36168ZM37.5841 24.5H0.250732C0.250732 26.433 1.81773 28 3.75073 28H34.0841C36.0171 28 37.5841 26.433 37.5841 24.5ZM17.512 14.0867L15.1883 5.79175L11.8812 10.7863H10.6208C10.0686 10.7863 9.62085 11.2341 9.62085 11.7863C9.62085 12.3386 10.0686 12.7863 10.6208 12.7863H12.9556L14.4419 10.5416L16.9116 19.3577L20.5013 12.7863H28.5962C29.1484 12.7863 29.5962 12.3386 29.5962 11.7863C29.5962 11.2341 29.1484 10.7863 28.5962 10.7863H19.3149L17.512 14.0867Z" fill="#A5ACBC"/>
<path fill-rule="evenodd" clip-rule="evenodd" d="M6.36168 0C4.70483 0 3.36168 1.34315 3.36168 3V23.3333H34.4728V3C34.4728 1.34315 33.1296 0 31.4728 0H6.36168ZM37.5841 24.5H0.250732C0.250732 26.433 1.81773 28 3.75073 28H34.0841C36.0171 28 37.5841 26.433 37.5841 24.5ZM17.512 14.0867L15.1883 5.79175L11.8812 10.7863H10.6208C10.0686 10.7863 9.62085 11.2341 9.62085 11.7863C9.62085 12.3386 10.0686 12.7863 10.6208 12.7863H12.9556L14.4419 10.5416L16.9116 19.3577L20.5013 12.7863H28.5962C29.1484 12.7863 29.5962 12.3386 29.5962 11.7863C29.5962 11.2341 29.1484 10.7863 28.5962 10.7863H19.3149L17.512 14.0867Z" fill="#5B47D7"/>
</svg>
