<svg width="33" height="24" viewBox="0 0 33 24" fill="none" xmlns="http://www.w3.org/2000/svg">
<path fill-rule="evenodd" clip-rule="evenodd" d="M5.82194 0C4.40178 0 3.25051 1.15127 3.25051 2.57143V20H29.9172V2.57143C29.9172 1.15127 28.7659 0 27.3457 0H5.82194ZM32.584 21H0.583984C0.583984 22.6569 1.92713 24 3.58398 24H29.584C31.2408 24 32.584 22.6569 32.584 21ZM15.3794 12.0744L13.3876 4.96436L10.5529 9.24544H9.47266C8.99927 9.24544 8.61551 9.6292 8.61551 10.1026C8.61551 10.576 8.99927 10.9597 9.47266 10.9597H11.4739L12.7478 9.03569L14.8647 16.5924L17.9416 10.9597H24.8801C25.3535 10.9597 25.7372 10.576 25.7372 10.1026C25.7372 9.6292 25.3535 9.24544 24.8801 9.24544H16.9247L15.3794 12.0744Z" fill="#CEDBFF"/>
</svg>
