<svg width="24" height="23" viewBox="0 0 24 23" fill="none" xmlns="http://www.w3.org/2000/svg">
<path d="M21.7091 7.98669C19.5382 7.98669 18.6507 6.45146 19.7301 4.5684C20.3538 3.47694 19.982 2.08564 18.8906 1.46195L16.8156 0.274544C15.8681 -0.289174 14.6447 0.0466583 14.081 0.994184L13.949 1.22207C12.8696 3.10513 11.0945 3.10513 10.003 1.22207L9.87106 0.994184C9.74177 0.767475 9.56868 0.568744 9.36186 0.409555C9.15505 0.250366 8.91864 0.133898 8.66639 0.0669298C8.41414 -3.87743e-05 8.15109 -0.0161711 7.89255 0.0194717C7.63401 0.0551145 7.38514 0.141821 7.16042 0.274544L5.08546 1.46195C3.994 2.08564 3.62219 3.48894 4.24588 4.58039C5.33733 6.45146 4.44978 7.98669 2.27886 7.98669C1.03148 7.98669 0 9.00618 0 10.2655V12.3765C0 13.6239 1.01949 14.6554 2.27886 14.6554C4.44978 14.6554 5.33733 16.1906 4.24588 18.0736C3.62219 19.1651 3.994 20.5564 5.08546 21.1801L7.16042 22.3675C8.10795 22.9312 9.33133 22.5954 9.89505 21.6479L10.027 21.42C11.1064 19.5369 12.8816 19.5369 13.973 21.42L14.1049 21.6479C14.6687 22.5954 15.8921 22.9312 16.8396 22.3675L18.9145 21.1801C20.006 20.5564 20.3778 19.1531 19.7541 18.0736C18.6627 16.1906 19.5502 14.6554 21.7211 14.6554C22.9685 14.6554 24 13.6359 24 12.3765V10.2655C23.9937 9.66103 23.75 9.08323 23.3214 8.65688C22.8928 8.23052 22.3137 7.9898 21.7091 7.98669ZM11.994 15.2191C9.84708 15.2191 8.09595 13.4679 8.09595 11.321C8.09595 9.17409 9.84708 7.42297 11.994 7.42297C14.1409 7.42297 15.8921 9.17409 15.8921 11.321C15.8921 13.4679 14.1409 15.2191 11.994 15.2191Z" fill="#CEDBFF"/>
</svg>
