<svg width="25" height="24" viewBox="0 0 25 24" fill="none" xmlns="http://www.w3.org/2000/svg">
<path d="M10.7991 3.34224C11.6731 2.46833 13.09 2.46833 13.9639 3.34224L20.9087 10.2871C21.7826 11.161 21.7826 12.5779 20.9087 13.4518C20.3261 14.0344 19.3815 14.0344 18.7989 13.4518L10.7991 5.45207C10.2165 4.86946 10.2165 3.92486 10.7991 3.34224Z" fill="#E3931A"/>
<path d="M16.2923 1.3655C18.113 -0.455166 21.0648 -0.455167 22.8855 1.3655C24.7061 3.18616 24.7061 6.13804 22.8855 7.95871L21.2811 9.56313C20.1568 10.6874 18.334 10.6874 17.2098 9.56314L14.6879 7.04125C13.5636 5.91699 13.5636 4.09419 14.6879 2.96993L16.2923 1.3655Z" fill="#E3931A"/>
<path d="M11.0627 6.59499L17.6559 13.1882L9.5243 21.3198C7.70365 23.1405 4.75178 23.1405 2.93113 21.3198C1.11048 19.4991 1.11048 16.5473 2.93113 14.7266L11.0627 6.59499Z" fill="#E3931A"/>
<path d="M1.45998 23.9663C0.746437 24.1575 0.0935007 23.5045 0.284694 22.791L1.79294 17.1621C1.98413 16.4486 2.87606 16.2096 3.39841 16.7319L7.519 20.8526C8.04135 21.3749 7.80236 22.2668 7.08882 22.458L1.45998 23.9663Z" fill="#E3931A"/>
</svg>
