<svg width="203" height="24" viewBox="0 0 203 24" fill="none" xmlns="http://www.w3.org/2000/svg">
<path d="M31.957 19H35.668V14.293H37.123L39.6328 19H43.6758L40.7852 13.6973C42.3086 12.9746 43.207 11.5977 43.207 9.64453C43.207 6.65625 41.1367 4.85938 37.9727 4.85938H31.957V19ZM35.668 11.3828V7.82812H37.1133C38.5098 7.83789 39.3301 8.39453 39.3203 9.64453C39.3301 10.875 38.5098 11.3828 37.1133 11.3828H35.668ZM57.8805 11.9297C57.8805 7.22266 54.8629 4.66406 51.0445 4.66406C47.1871 4.66406 44.1988 7.22266 44.1891 11.9297C44.1988 16.6074 47.1871 19.1953 51.0445 19.1953C54.8629 19.1953 57.8805 16.6367 57.8805 11.9297ZM48.0172 11.9297C48.0172 9.32227 49.0914 7.90625 51.0445 7.90625C52.9781 7.90625 54.0621 9.32227 54.0523 11.9297C54.0621 14.5273 52.9781 15.9434 51.0445 15.9531C49.0914 15.9434 48.0172 14.5273 48.0172 11.9297ZM68.4133 10.1133H72.1828C71.8703 6.63672 69.3215 4.66406 65.7961 4.66406C61.9973 4.66406 59.009 7.22266 58.9992 11.9297C59.009 16.6172 61.9191 19.1953 65.7961 19.1953C69.8684 19.1953 71.9777 16.3828 72.1828 13.9609L68.4133 13.9219C68.2082 15.1816 67.3098 15.9434 65.8742 15.9531C63.9602 15.9434 62.8273 14.5859 62.8273 11.9297C62.8273 9.40039 63.9309 7.90625 65.8937 7.90625C67.3977 7.90625 68.2863 8.78516 68.4133 10.1133ZM73.3797 19H77.0906V15.3086L78.3992 13.6289L81.6609 19H86.1141L81.1727 11.168L86.0164 4.85938H81.6609L77.2859 10.6406H77.0906V4.85938H73.3797V19ZM86.5883 19H96.6664V15.9922H90.2992V13.4336H96.1586V10.4258H90.2992V7.86719H96.6859V4.85938H86.5883V19ZM97.6289 7.86719H101.887V19H105.559V7.86719H109.816V4.85938H97.6289V7.86719ZM114.476 19H118.187V13.4336H123.402V19H127.132V4.85938H123.402V10.4258H118.187V4.85938H114.476V19ZM131.923 19L132.762 16.2266H137.499L138.348 19H142.352L137.665 4.85938H132.606L127.899 19H131.923ZM133.622 13.4141L135.067 8.66797H135.184L136.639 13.4141H133.622ZM143.159 4.85938V19H146.791V10.6211H146.909L150.112 18.9023H152.338L155.561 10.6797H155.678V19H159.311V4.85938H154.682L151.323 13.082H151.147L147.787 4.85938H143.159ZM160.625 4.85938V19H164.258V10.6211H164.375L167.578 18.9023H169.805L173.027 10.6797H173.145V19H176.777V4.85938H172.148L168.789 13.082H168.613L165.254 4.85938H160.625ZM178.091 19H188.17V15.9922H181.802V13.4336H187.662V10.4258H181.802V7.86719H188.189V4.85938H178.091V19ZM189.542 19H193.253V14.293H194.708L197.218 19H201.261L198.37 13.6973C199.894 12.9746 200.792 11.5977 200.792 9.64453C200.792 6.65625 198.722 4.85938 195.558 4.85938H189.542V19ZM193.253 11.3828V7.82812H194.698C196.095 7.83789 196.915 8.39453 196.905 9.64453C196.915 10.875 196.095 11.3828 194.698 11.3828H193.253Z" fill="#122660"/>
<circle cx="12" cy="12" r="12" fill="#FD0F64"/>
<circle cx="12" cy="12" r="12" fill="#122660"/>
<mask id="mask0_1_1837" style="mask-type:alpha" maskUnits="userSpaceOnUse" x="0" y="0" width="24" height="24">
<circle cx="12" cy="12" r="12" fill="white"/>
</mask>
<g mask="url(#mask0_1_1837)">
<path d="M10.2217 3.09692C9.97137 3.09692 9.73987 3.18081 9.5491 3.37208L4.68806 8.23311C4.30652 8.61466 4.30652 9.22635 4.68806 9.60887L5.39123 10.312L11.628 4.07525L10.9249 3.37208C10.7336 3.18081 10.472 3.09692 10.2217 3.09692ZM11.9608 4.45065L5.72401 10.6569L13.3102 18.2761L19.5164 12.0393L11.9608 4.45065ZM13.793 9.82929L16.6895 10.312L12.6895 11.2776L14.0688 12.2071L8.62552 12.312L12.2068 10.6569L10.5516 9.36898L13.793 9.82929ZM19.9132 12.391L13.6764 18.5972L14.3796 19.3004C14.7611 19.6829 15.3728 19.6829 15.7553 19.3004L20.6164 14.4393C20.9989 14.0578 20.9989 13.4461 20.6164 13.0636L19.9132 12.391Z" fill="white"/>
<path d="M2.34468 20.2137L8.48919 14.0692L9.95217 15.5322L3.80766 21.6767L2.34468 20.2137Z" fill="white"/>
<path d="M2.12444 21.4418C1.47805 20.7954 1.47805 19.7474 2.12444 19.101L2.82145 18.404C3.46784 17.7576 4.51584 17.7576 5.16222 18.404L5.61742 18.8592C6.26381 19.5056 6.26381 20.5536 5.61742 21.2L4.92041 21.897C4.27402 22.5434 3.22603 22.5434 2.57964 21.897L2.12444 21.4418Z" fill="white"/>
</g>
</svg>
