<svg width="28" height="29" viewBox="0 0 28 29" fill="none" xmlns="http://www.w3.org/2000/svg">
<path d="M8.16683 9.83325H4.66683C3.3835 9.83325 2.3335 8.78325 2.3335 7.49992V5.16659C2.3335 3.88325 3.3835 2.83325 4.66683 2.83325H8.16683C9.45016 2.83325 10.5002 3.88325 10.5002 5.16659V7.49992C10.5002 8.78325 9.45016 9.83325 8.16683 9.83325ZM24.2668 8.66659H20.0668C19.2968 8.66659 18.6668 8.03659 18.6668 7.26659V5.39992C18.6668 4.62992 19.2968 3.99992 20.0668 3.99992H24.2668C25.0368 3.99992 25.6668 4.62992 25.6668 5.39992V7.26659C25.6668 8.03659 25.0368 8.66659 24.2668 8.66659ZM24.2668 17.4166H20.0668C19.2968 17.4166 18.6668 16.7866 18.6668 16.0166V14.1499C18.6668 13.3799 19.2968 12.7499 20.0668 12.7499H24.2668C25.0368 12.7499 25.6668 13.3799 25.6668 14.1499V16.0166C25.6668 16.7866 25.0368 17.4166 24.2668 17.4166Z" fill="#079ABA"/>
<path d="M18.6667 15.9583C19.145 15.9583 19.5417 15.5616 19.5417 15.0833C19.5417 14.6049 19.145 14.2083 18.6667 14.2083H15.4583V7.20825H18.6667C19.145 7.20825 19.5417 6.81159 19.5417 6.33325C19.5417 5.85492 19.145 5.45825 18.6667 5.45825H10.5C10.0217 5.45825 9.625 5.85492 9.625 6.33325C9.625 6.81159 10.0217 7.20825 10.5 7.20825H13.7083V21.4999C13.7083 23.2733 15.1433 24.7083 16.9167 24.7083H18.6667C19.145 24.7083 19.5417 24.3116 19.5417 23.8333C19.5417 23.3549 19.145 22.9583 18.6667 22.9583H16.9167C16.1117 22.9583 15.4583 22.3049 15.4583 21.4999V15.9583H18.6667Z" fill="#079ABA"/>
<path d="M24.2665 26.1667H20.0665C19.2965 26.1667 18.6665 25.5367 18.6665 24.7667V22.9C18.6665 22.13 19.2965 21.5 20.0665 21.5H24.2665C25.0365 21.5 25.6665 22.13 25.6665 22.9V24.7667C25.6665 25.5367 25.0365 26.1667 24.2665 26.1667Z" fill="#079ABA"/>
</svg>
