<svg width="28" height="28" viewBox="0 0 28 28" fill="none" xmlns="http://www.w3.org/2000/svg">
<path d="M8.16658 9.33325H4.66659C3.38325 9.33325 2.33325 8.28325 2.33325 6.99992V4.66659C2.33325 3.38325 3.38325 2.33325 4.66659 2.33325H8.16658C9.44992 2.33325 10.4999 3.38325 10.4999 4.66659V6.99992C10.4999 8.28325 9.44992 9.33325 8.16658 9.33325ZM24.2666 8.16659H20.0666C19.2966 8.16659 18.6666 7.53659 18.6666 6.76659V4.89992C18.6666 4.12992 19.2966 3.49992 20.0666 3.49992H24.2666C25.0366 3.49992 25.6666 4.12992 25.6666 4.89992V6.76659C25.6666 7.53659 25.0366 8.16659 24.2666 8.16659ZM24.2666 16.9166H20.0666C19.2966 16.9166 18.6666 16.2866 18.6666 15.5166V13.6499C18.6666 12.8799 19.2966 12.2499 20.0666 12.2499H24.2666C25.0366 12.2499 25.6666 12.8799 25.6666 13.6499V15.5166C25.6666 16.2866 25.0366 16.9166 24.2666 16.9166Z" fill="#A5ACBC"/>
<path d="M18.6667 15.4583C19.145 15.4583 19.5417 15.0616 19.5417 14.5833C19.5417 14.1049 19.145 13.7083 18.6667 13.7083H15.4583V6.70825H18.6667C19.145 6.70825 19.5417 6.31159 19.5417 5.83325C19.5417 5.35492 19.145 4.95825 18.6667 4.95825H10.5C10.0217 4.95825 9.625 5.35492 9.625 5.83325C9.625 6.31159 10.0217 6.70825 10.5 6.70825H13.7083V20.9999C13.7083 22.7733 15.1433 24.2083 16.9167 24.2083H18.6667C19.145 24.2083 19.5417 23.8116 19.5417 23.3333C19.5417 22.8549 19.145 22.4583 18.6667 22.4583H16.9167C16.1117 22.4583 15.4583 21.8049 15.4583 20.9999V15.4583H18.6667Z" fill="#A5ACBC"/>
<path d="M24.2667 25.6667H20.0667C19.2967 25.6667 18.6667 25.0367 18.6667 24.2667V22.4C18.6667 21.63 19.2967 21 20.0667 21H24.2667C25.0367 21 25.6667 21.63 25.6667 22.4V24.2667C25.6667 25.0367 25.0367 25.6667 24.2667 25.6667Z" fill="#A5ACBC"/>
</svg>
