<svg width="33" height="24" viewBox="0 0 33 24" fill="none" xmlns="http://www.w3.org/2000/svg">
<path fill-rule="evenodd" clip-rule="evenodd" d="M5.48893 0C4.06877 0 2.91751 1.15127 2.91751 2.57143V20H29.5842V2.57143C29.5842 1.15127 28.4329 0 27.0127 0H5.48893ZM32.251 21H0.250977C0.250977 22.6569 1.59412 24 3.25097 24H29.251C30.9078 24 32.251 22.6569 32.251 21ZM15.0463 12.0744L13.0546 4.96436L10.2199 9.24544H9.13965C8.66626 9.24544 8.28251 9.6292 8.28251 10.1026C8.28251 10.576 8.66626 10.9597 9.13965 10.9597H11.1409L12.4148 9.03569L14.5317 16.5924L17.6086 10.9597H24.5471C25.0204 10.9597 25.4042 10.576 25.4042 10.1026C25.4042 9.6292 25.0204 9.24544 24.5471 9.24544H16.5917L15.0463 12.0744Z" fill="#5B47D7"/>
</svg>
