<svg width="29" height="24" viewBox="0 0 29 24" fill="none" xmlns="http://www.w3.org/2000/svg">
<rect x="0.250977" y="0.5" width="33" height="27" rx="3" fill="#A5ACBC"/>
<path fill-rule="evenodd" clip-rule="evenodd" d="M4.4351 14.578L7.90647 11.6249L4.4351 8.67183C4.13823 8.41928 3.68699 8.44852 3.42722 8.73715C3.16746 9.02578 3.19754 9.46449 3.49441 9.71703L5.73713 11.6249L3.49442 13.5328C3.19754 13.7853 3.16746 14.224 3.42722 14.5127C3.68699 14.8013 4.13823 14.8305 4.4351 14.578ZM8.25087 13.361C7.8564 13.361 7.53661 13.6719 7.53661 14.0554C7.53661 14.4389 7.8564 14.7498 8.25087 14.7498H12.5364C12.9309 14.7498 13.2507 14.4389 13.2507 14.0554C13.2507 13.6719 12.9309 13.361 12.5364 13.361H8.25087Z" fill="#F5F7FC"/>
<line x1="0.250977" y1="5" x2="28.251" y2="5" stroke="#F5F7FC"/>
</svg>
